<svg width="1920" height="720" viewBox="0 0 1920 720" fill="none" xmlns="http://www.w3.org/2000/svg">
<g clip-path="url(#clip0_0_443)">
<path d="M0 0H1920V640C1920 684.183 1884.18 720 1840 720H80C35.8173 720 0 684.183 0 640V0Z" fill="#B4E8FF"/>
<path d="M1710.25 170.302C1817.21 304.08 1969.05 567.014 1720.75 548.523C1410.37 525.41 1450.87 248.853 1561.68 329.793C1672.5 410.732 1771.26 681.526 1660.13 692.648C1532.92 705.38 1451.43 610.8 1492.39 596.713C1541.41 579.856 1640.66 906.319 1434.37 904.898" stroke="white" stroke-width="2"/>
</g>
<defs>
<clipPath id="clip0_0_443">
<path d="M0 0H1920V640C1920 684.183 1884.18 720 1840 720H80C35.8173 720 0 684.183 0 640V0Z" fill="white"/>
</clipPath>
</defs>
</svg>
