<svg width="140" height="17" viewBox="0 0 140 17" fill="none" xmlns="http://www.w3.org/2000/svg">
<path d="M0 15.9297V1.05965H6.01437C7.09281 1.05965 8.0952 1.23593 9.02155 1.5885C9.94791 1.93415 10.7464 2.42498 11.4169 3.06098C12.0944 3.69007 12.6233 4.47125 13.0035 5.40451C13.3837 6.33778 13.5738 7.36782 13.5738 8.49465C13.5738 9.62148 13.3837 10.6515 13.0035 11.5848C12.6233 12.5181 12.0944 13.3027 11.4169 13.9387C10.7464 14.5678 9.94791 15.0586 9.02155 15.4112C8.0952 15.7568 7.09281 15.9297 6.01437 15.9297H0ZM2.57166 13.6172H6.01437C7.49377 13.6172 8.69318 13.161 9.61262 12.2484C10.539 11.329 11.0021 10.0777 11.0021 8.49465C11.0021 6.91156 10.539 5.66375 9.61262 4.75123C8.69318 3.8387 7.49377 3.38244 6.01437 3.38244H2.57166V13.6172Z" fill="black"/>
<path d="M19.3082 9.38644V13.6172H28.6305V15.9297H16.7365V1.05965H28.6305V3.38244H19.3082V7.1155H27.6557V9.38644H19.3082Z" fill="black"/>
<path d="M38.2224 16.2096C33.6459 16.2096 31.1987 14.5159 30.8807 11.1285H33.556C33.7289 12.1378 34.2128 12.8637 35.0078 13.3061C35.8097 13.7417 36.8812 13.9594 38.2224 13.9594C40.6903 13.9594 41.9243 13.2578 41.9243 11.8544C41.9243 11.4327 41.8033 11.0801 41.5614 10.7967C41.3263 10.5133 41.0049 10.2955 40.597 10.1434C40.196 9.99133 39.7329 9.87035 39.2075 9.78048C38.6821 9.6837 38.129 9.59729 37.5483 9.52124C36.9745 9.4452 36.3973 9.35879 35.8166 9.262C35.2428 9.16522 34.6932 9.02005 34.1678 8.82648C33.6424 8.626 33.1758 8.38059 32.7679 8.09024C32.367 7.79298 32.0455 7.39202 31.8036 6.88737C31.5685 6.38271 31.451 5.78819 31.451 5.10379C31.451 4.59223 31.5236 4.12559 31.6688 3.7039C31.8139 3.27529 32.0075 2.91581 32.2495 2.62546C32.4914 2.33511 32.7818 2.07933 33.1205 1.85811C33.4593 1.62998 33.8049 1.45024 34.1575 1.31889C34.5169 1.18754 34.9041 1.08039 35.3189 0.997431C35.7406 0.914474 36.1242 0.85917 36.4699 0.831517C36.8225 0.803865 37.1819 0.790039 37.5483 0.790039C38.4609 0.790039 39.287 0.879909 40.0267 1.05965C40.7733 1.23248 41.4369 1.50209 42.0176 1.86848C42.6052 2.22796 43.0788 2.70842 43.4383 3.30985C43.7977 3.91129 44.0224 4.61297 44.1123 5.41488H41.4577C41.3194 4.64062 40.9115 4.05301 40.2341 3.65205C39.5566 3.24418 38.6613 3.04024 37.5483 3.04024C37.0782 3.04024 36.6427 3.07826 36.2418 3.15431C35.8408 3.22344 35.4675 3.33405 35.1218 3.48614C34.7831 3.63822 34.5135 3.85253 34.313 4.12905C34.1194 4.40557 34.0227 4.73049 34.0227 5.10379C34.0227 5.49784 34.1402 5.82621 34.3752 6.08891C34.6172 6.3516 34.9386 6.55554 35.3396 6.70071C35.7475 6.83897 36.2141 6.95304 36.7395 7.04291C37.2649 7.13278 37.8145 7.21919 38.3883 7.30215C38.969 7.37819 39.5462 7.46806 40.12 7.57176C40.7007 7.66854 41.2537 7.82063 41.7791 8.02802C42.3045 8.23541 42.7677 8.4912 43.1687 8.79537C43.5765 9.09955 43.898 9.51087 44.133 10.0294C44.375 10.5478 44.496 11.1562 44.496 11.8544C44.496 14.7579 42.4048 16.2096 38.2224 16.2096Z" fill="black"/>
<path d="M47.4306 15.9297V1.05965H50.0022V15.9297H47.4306Z" fill="black"/>
<path d="M60.6622 16.2096C59.5976 16.2096 58.6055 16.023 57.6861 15.6497C56.7667 15.2695 55.9751 14.7475 55.3115 14.0839C54.6478 13.4133 54.1259 12.5976 53.7456 11.6366C53.3723 10.6688 53.1857 9.62148 53.1857 8.49465C53.1857 6.9876 53.5106 5.64993 54.1604 4.48162C54.8103 3.3064 55.709 2.39733 56.8565 1.75441C58.0041 1.1115 59.3003 0.790039 60.7451 0.790039C62.501 0.790039 64.0012 1.25321 65.2455 2.17957C66.4899 3.10592 67.3609 4.36755 67.8587 5.96447H65.0796C64.6787 5.06577 64.1118 4.37101 63.379 3.88018C62.6462 3.38935 61.7683 3.14394 60.7451 3.14394C59.2726 3.14394 58.0767 3.63822 57.1572 4.62679C56.2378 5.61536 55.7781 6.90465 55.7781 8.49465C55.7781 10.0916 56.2447 11.3843 57.178 12.3729C58.1182 13.3545 59.3556 13.8454 60.8903 13.8454C62.1554 13.8454 63.2269 13.4997 64.1049 12.8084C64.9898 12.1171 65.5324 11.1977 65.7329 10.0501H60.4444V7.86211H68.0039V15.9297H65.8159V13.8039H65.7329C65.2006 14.5989 64.4955 15.2003 63.6175 15.6082C62.7465 16.0092 61.7614 16.2096 60.6622 16.2096Z" fill="black"/>
<path d="M84.9167 1.05965V15.9297H81.7021L74.1427 4.82381H74.0597V15.9297H71.488V1.05965H74.7234L82.2621 12.1759H82.345V1.05965H84.9167Z" fill="black"/>
<path d="M97.0387 9.81159V15.9297H94.4671V1.05965H106.361V3.38244H97.0387V7.54065H105.386V9.81159H97.0387Z" fill="black"/>
<path d="M119.593 15.2453C118.438 15.8882 117.142 16.2096 115.704 16.2096C114.266 16.2096 112.966 15.8882 111.805 15.2453C110.651 14.6023 109.738 13.6933 109.067 12.5181C108.397 11.3359 108.062 9.99479 108.062 8.49465C108.062 6.99452 108.397 5.65684 109.067 4.48162C109.738 3.29948 110.651 2.39041 111.805 1.75441C112.966 1.1115 114.266 0.790039 115.704 0.790039C117.142 0.790039 118.438 1.1115 119.593 1.75441C120.754 2.39041 121.67 3.29948 122.341 4.48162C123.011 5.65684 123.346 6.99452 123.346 8.49465C123.346 9.99479 123.011 11.3359 122.341 12.5181C121.67 13.6933 120.754 14.6023 119.593 15.2453ZM115.704 13.8454C117.163 13.8454 118.372 13.3476 119.333 12.3521C120.301 11.3567 120.785 10.0708 120.785 8.49465C120.785 6.91847 120.301 5.63264 119.333 4.63716C118.372 3.64168 117.163 3.14394 115.704 3.14394C114.259 3.14394 113.056 3.64168 112.095 4.63716C111.134 5.63264 110.654 6.91847 110.654 8.49465C110.654 10.0708 111.134 11.3567 112.095 12.3521C113.056 13.3476 114.259 13.8454 115.704 13.8454Z" fill="black"/>
<path d="M136.941 15.9297L133.695 10.413H129.102V15.9297H126.53V1.05965H134.898C136.384 1.05965 137.605 1.47789 138.559 2.31437C139.52 3.14394 140 4.2846 140 5.73634C140 6.90465 139.679 7.87939 139.036 8.66057C138.393 9.43483 137.532 9.9464 136.454 10.1953L139.844 15.9297H136.941ZM129.102 8.09024H134.898C135.686 8.09024 136.305 7.87593 136.754 7.44732C137.204 7.01871 137.428 6.44839 137.428 5.73634C137.428 5.02429 137.204 4.45397 136.754 4.02536C136.305 3.59674 135.686 3.38244 134.898 3.38244H129.102V8.09024Z" fill="black"/>
</svg>
