<svg width="31" height="16" viewBox="0 0 31 16" fill="none" xmlns="http://www.w3.org/2000/svg">
<path d="M0 16V0H6.47141C7.6318 0 8.71037 0.189679 9.70711 0.569038C10.7039 0.940958 11.563 1.46908 12.2845 2.15342C13.0135 2.83031 13.5825 3.67085 13.9916 4.67503C14.4007 5.67922 14.6053 6.78754 14.6053 8C14.6053 9.21246 14.4007 10.3208 13.9916 11.325C13.5825 12.3291 13.0135 13.1734 12.2845 13.8577C11.563 14.5346 10.7039 15.0628 9.70711 15.4421C8.71037 15.814 7.6318 16 6.47141 16H0ZM2.76709 13.5119H6.47141C8.06323 13.5119 9.35379 13.0209 10.3431 12.0391C11.3398 11.0497 11.8382 9.70339 11.8382 8C11.8382 6.29661 11.3398 4.95397 10.3431 3.97211C9.35379 2.99024 8.06323 2.4993 6.47141 2.4993H2.76709V13.5119Z" fill="black"/>
<path d="M20.7755 9.41702V16H18.0084V0H30.8061V2.4993H20.7755V6.9735H29.7573V9.41702H20.7755Z" fill="black"/>
</svg>
