<svg width="32" height="25" viewBox="0 0 32 25" fill="none" xmlns="http://www.w3.org/2000/svg">
<path d="M5.66293 2.90015L7.89909 17.4632C7.93933 17.7535 8.0839 18.019 8.30565 18.2099C8.52741 18.4008 8.81108 18.504 9.10336 18.5L25.3522 18.4989C25.6097 18.4989 25.8604 18.4157 26.067 18.2616C26.2736 18.1074 26.4251 17.8906 26.499 17.6433L30.0902 5.64338C30.1438 5.46421 30.1548 5.27497 30.1225 5.09077C30.0901 4.90657 30.0152 4.7325 29.9038 4.58246C29.7924 4.43243 29.6475 4.31057 29.4808 4.22663C29.314 4.14269 29.13 4.09898 28.9434 4.09899L8.27019 4.10015L7.87515 1.53456C7.83525 1.24085 7.68757 0.972596 7.46096 0.78217C7.2403 0.595456 6.9596 0.495267 6.67088 0.500172H3.19709C3.03988 0.500172 2.88422 0.531211 2.73898 0.591516C2.59374 0.651821 2.46178 0.740212 2.35062 0.851641C2.23946 0.963071 2.15128 1.09536 2.09112 1.24095C2.03096 1.38654 2 1.54258 2 1.70016C2 1.85775 2.03096 2.01379 2.09112 2.15938C2.15128 2.30497 2.23946 2.43726 2.35062 2.54869C2.46178 2.66012 2.59374 2.74851 2.73898 2.80881C2.88422 2.86912 3.03988 2.90015 3.19709 2.90015H5.66293ZM12.6755 22.1C12.6755 22.7365 12.4232 23.347 11.9742 23.7971C11.5252 24.2471 10.9163 24.5 10.2813 24.5C9.64632 24.5 9.03735 24.2471 8.58836 23.7971C8.13937 23.347 7.88712 22.7365 7.88712 22.1C7.88712 21.4635 8.13937 20.8531 8.58836 20.403C9.03735 19.9529 9.64632 19.7 10.2813 19.7C10.9163 19.7 11.5252 19.9529 11.9742 20.403C12.4232 20.8531 12.6755 21.4635 12.6755 22.1ZM26.5493 22.0989C26.5493 22.7354 26.297 23.3458 25.848 23.7959C25.399 24.246 24.7901 24.4989 24.1551 24.4989C23.5201 24.4989 22.9111 24.246 22.4621 23.7959C22.0132 23.3458 21.7609 22.7354 21.7609 22.0989C21.7609 21.4624 22.0132 20.8519 22.4621 20.4018C22.9111 19.9518 23.5201 19.6989 24.1551 19.6989C24.7901 19.6989 25.399 19.9518 25.848 20.4018C26.297 20.8519 26.5493 21.4624 26.5493 22.0989Z" fill="#CCADFF"/>
</svg>
